<?xml version="1.0" encoding="utf-8"?>
<!-- Generator: Adobe Illustrator 18.1.1, SVG Export Plug-In . SVG Version: 6.00 Build 0)  -->
<svg version="1.1" id="Layer_1" xmlns="http://www.w3.org/2000/svg" xmlns:xlink="http://www.w3.org/1999/xlink" x="0px" y="0px"
	 width="211.9px" height="45.5px" viewBox="0 0 211.9 45.5" enable-background="new 0 0 211.9 45.5" xml:space="preserve">
<g>
	<defs>
		<path id="SVGID_1_" d="M21.3,17.9c0,0,4.9-6.4,6.8-9c0.6,2.8,1.8,8.9,1.8,8.9h9.5c-3,2.2-9,6.6-9,6.6s0.5,8.9,0.7,12.1
			c-2.5-1.8-9.3-6.7-9.3-6.7s-7.8,4.2-11.9,6.4c2.4-3.9,7-11.1,7-11.1s-3.8-5-5.5-7.2 M49.9,14.2H33.4c-0.3-1.5-3-14.2-3-14.2
			S20.1,13.5,19.5,14.3H3.6c0,0,7.6,10.3,8.4,11.3C11.3,26.7,0,45.5,0,45.5S19.7,35,20.8,34.4c1,0.7,14.6,10.7,14.6,10.7
			s-0.9-18.2-1-19.3C35.3,25.2,49.9,14.2,49.9,14.2"/>
	</defs>
	<clipPath id="SVGID_2_">
		<use xlink:href="#SVGID_1_"  overflow="visible"/>
	</clipPath>
	<g clip-path="url(#SVGID_2_)">
		<defs>
			<rect id="SVGID_3_" x="0" y="-0.5" width="212" height="46"/>
		</defs>
		<clipPath id="SVGID_4_">
			<use xlink:href="#SVGID_3_"  overflow="visible"/>
		</clipPath>
		<rect x="-5" y="-5" clip-path="url(#SVGID_4_)" fill="#E32313" width="59.9" height="55.5"/>
	</g>
</g>
<g>
	<defs>
		<polygon id="SVGID_5_" points="183.6,13.6 183.6,41.6 187.5,41.6 187.5,13.6 187.2,13.6 		"/>
	</defs>
	<clipPath id="SVGID_6_">
		<use xlink:href="#SVGID_5_"  overflow="visible"/>
	</clipPath>
	<g clip-path="url(#SVGID_6_)">
		<defs>
			<rect id="SVGID_7_" x="-50" y="-22.5" width="1040" height="266"/>
		</defs>
		<clipPath id="SVGID_8_">
			<use xlink:href="#SVGID_7_"  overflow="visible"/>
		</clipPath>
		<rect x="178.6" y="8.6" clip-path="url(#SVGID_8_)" fill="#FEFEFE" width="13.9" height="38"/>
	</g>
</g>
<g>
	<defs>
		<path id="SVGID_9_" d="M173.7,23.6V22h-3.8v19.6h3.9V30.3c0-1.5,0.5-2.8,1.5-3.7c1.1-1,2.7-1.4,4.5-1.3l0.3,0v-3.7l-0.3,0
			C177.5,21.3,175.2,22.1,173.7,23.6"/>
	</defs>
	<clipPath id="SVGID_10_">
		<use xlink:href="#SVGID_9_"  overflow="visible"/>
	</clipPath>
	<g clip-path="url(#SVGID_10_)">
		<defs>
			<rect id="SVGID_11_" x="-50" y="-22.5" width="1040" height="266"/>
		</defs>
		<clipPath id="SVGID_12_">
			<use xlink:href="#SVGID_11_"  overflow="visible"/>
		</clipPath>
		<rect x="164.9" y="16.5" clip-path="url(#SVGID_12_)" fill="#FEFEFE" width="20.2" height="30.1"/>
	</g>
</g>
<g>
	<defs>
		<path id="SVGID_13_" d="M144,22h-3.7c0,0-3.4,11.6-3.9,13.4c-0.5-1.8-4-13.4-4-13.4h-3.9c0,0-3.4,11.6-4,13.4
			c-0.5-1.8-4-13.4-4-13.4h-4.1l6.1,19.6h3.9c0,0,3.4-11.8,4-13.6c0.5,1.9,4,13.6,4,13.6h3.9l6.1-19.6H144z"/>
	</defs>
	<clipPath id="SVGID_14_">
		<use xlink:href="#SVGID_13_"  overflow="visible"/>
	</clipPath>
	<g clip-path="url(#SVGID_14_)">
		<defs>
			<rect id="SVGID_15_" x="-50" y="-22.5" width="1040" height="266"/>
		</defs>
		<clipPath id="SVGID_16_">
			<use xlink:href="#SVGID_15_"  overflow="visible"/>
		</clipPath>
		<rect x="111.5" y="17" clip-path="url(#SVGID_16_)" fill="#FEFEFE" width="37.9" height="29.6"/>
	</g>
</g>
<g>
	<defs>
		<polygon id="SVGID_17_" points="71.9,15.7 68.3,15.7 67.8,20 71.7,20 72.2,15.7 		"/>
	</defs>
	<clipPath id="SVGID_18_">
		<use xlink:href="#SVGID_17_"  overflow="visible"/>
	</clipPath>
	<g clip-path="url(#SVGID_18_)">
		<defs>
			<rect id="SVGID_19_" x="-50" y="-22.5" width="1040" height="266"/>
		</defs>
		<clipPath id="SVGID_20_">
			<use xlink:href="#SVGID_19_"  overflow="visible"/>
		</clipPath>
		<rect x="62.8" y="10.7" clip-path="url(#SVGID_20_)" fill="#FEFEFE" width="14.5" height="14.3"/>
	</g>
</g>
<g>
	<defs>
		<path id="SVGID_21_" d="M84.9,21.8c-2.1,0-4.1,0.8-5.6,2.1c0.1-0.6,0.2-1.6,0.2-1.6h-3.8l-2.5,19.6H77L78.5,30
			c0.3-2.7,2.7-4.7,5.5-4.7c1.3,0,2.3,0.4,3,1.1c0.8,0.8,1.1,2.1,0.9,3.6l-1.5,11.9h3.9l1.5-11.7c0.3-2.6-0.2-4.8-1.6-6.3
			C88.9,22.5,87.1,21.8,84.9,21.8"/>
	</defs>
	<clipPath id="SVGID_22_">
		<use xlink:href="#SVGID_21_"  overflow="visible"/>
	</clipPath>
	<g clip-path="url(#SVGID_22_)">
		<defs>
			<rect id="SVGID_23_" x="-50" y="-22.5" width="1040" height="266"/>
		</defs>
		<clipPath id="SVGID_24_">
			<use xlink:href="#SVGID_23_"  overflow="visible"/>
		</clipPath>
		<rect x="68.1" y="16.8" clip-path="url(#SVGID_24_)" fill="#FEFEFE" width="28.7" height="30.1"/>
	</g>
</g>
<g>
	<defs>
		<polygon id="SVGID_25_" points="67.5,22.3 65,41.8 68.9,41.8 71.4,22.3 71,22.3 		"/>
	</defs>
	<clipPath id="SVGID_26_">
		<use xlink:href="#SVGID_25_"  overflow="visible"/>
	</clipPath>
	<g clip-path="url(#SVGID_26_)">
		<defs>
			<rect id="SVGID_27_" x="-50" y="-22.5" width="1040" height="266"/>
		</defs>
		<clipPath id="SVGID_28_">
			<use xlink:href="#SVGID_27_"  overflow="visible"/>
		</clipPath>
		<rect x="60" y="17.3" clip-path="url(#SVGID_28_)" fill="#FEFEFE" width="16.4" height="29.6"/>
	</g>
</g>
<g>
	<defs>
		<path id="SVGID_29_" d="M55.1,25.3c2.3,0,4.1,1.2,5,3.3l0.1,0.2h4.1l-0.1-0.4c-0.9-4.1-4.2-6.6-8.7-6.6c-5.6,0-10.8,4.6-11.5,10.3
			c-0.4,2.8,0.4,5.5,2.2,7.4c1.7,1.8,4.1,2.8,6.7,2.8c4.5,0,8.4-2.5,10.3-6.5l0.2-0.4h-4.2l-0.1,0.2c-1.4,2.1-3.5,3.3-5.9,3.3
			c-1.5,0-2.9-0.6-4-1.7c-1.2-1.3-1.7-3.1-1.4-5C48.4,28.3,51.6,25.3,55.1,25.3"/>
	</defs>
	<clipPath id="SVGID_30_">
		<use xlink:href="#SVGID_29_"  overflow="visible"/>
	</clipPath>
	<g clip-path="url(#SVGID_30_)">
		<defs>
			<rect id="SVGID_31_" x="-50" y="-22.5" width="1040" height="266"/>
		</defs>
		<clipPath id="SVGID_32_">
			<use xlink:href="#SVGID_31_"  overflow="visible"/>
		</clipPath>
		<rect x="38.9" y="16.8" clip-path="url(#SVGID_32_)" fill="#FEFEFE" width="30.4" height="30.5"/>
	</g>
</g>
<g>
	<defs>
		<path id="SVGID_33_" d="M211.9,41.6v-28h-0.3H208v10.7c-1.4-1.5-3.6-2.8-6.4-2.8c-5.7,0-10.2,4.5-10.2,10.3
			c0,5.7,4.5,10.3,10.2,10.3c2.9,0,5.1-1.4,6.5-2.9v2.4H211.9z M208.2,31.8c0,3.7-3,6.9-6.5,6.9c-3.6,0-6.5-3.1-6.5-6.9
			c0-3.9,2.8-6.9,6.5-6.9C205.3,24.8,208.2,28,208.2,31.8z"/>
	</defs>
	<clipPath id="SVGID_34_">
		<use xlink:href="#SVGID_33_"  overflow="visible"/>
	</clipPath>
	<g clip-path="url(#SVGID_34_)">
		<defs>
			<rect id="SVGID_35_" x="-50" y="-22.5" width="1040" height="266"/>
		</defs>
		<clipPath id="SVGID_36_">
			<use xlink:href="#SVGID_35_"  overflow="visible"/>
		</clipPath>
		<rect x="186.4" y="8.6" clip-path="url(#SVGID_36_)" fill="#FEFEFE" width="30.5" height="38.5"/>
	</g>
</g>
<g>
	<defs>
		<path id="SVGID_37_" d="M166,31.8c0-5.8-4.5-10.3-10.3-10.3c-5.7,0-10.3,4.5-10.3,10.3c0,5.7,4.5,10.2,10.3,10.2
			C161.5,42,166,37.5,166,31.8 M162.3,31.8c0,3.8-2.9,6.8-6.5,6.8c-3.6,0-6.5-3.1-6.5-6.8c0-3.9,2.9-7,6.5-7
			C159.3,24.8,162.3,27.9,162.3,31.8"/>
	</defs>
	<clipPath id="SVGID_38_">
		<use xlink:href="#SVGID_37_"  overflow="visible"/>
	</clipPath>
	<g clip-path="url(#SVGID_38_)">
		<defs>
			<rect id="SVGID_39_" x="-50" y="-22.5" width="1040" height="266"/>
		</defs>
		<clipPath id="SVGID_40_">
			<use xlink:href="#SVGID_39_"  overflow="visible"/>
		</clipPath>
		<rect x="140.5" y="16.5" clip-path="url(#SVGID_40_)" fill="#FEFEFE" width="30.5" height="30.5"/>
	</g>
</g>
<g>
	<defs>
		<path id="SVGID_41_" d="M114.7,31.2c0-2.6-0.8-4.9-2.4-6.6c-1.7-1.8-4-2.8-6.7-2.8c-5.6,0-10.8,4.6-11.5,10.3
			c-0.4,2.8,0.4,5.4,2.2,7.4c1.7,1.9,4.2,2.9,7,2.9c4.7,0,8.5-2.4,10.4-6.5l0.2-0.4h-4.1l-0.1,0.2c-1.3,2.2-3.4,3.3-6,3.3
			c-1.6,0-3-0.6-4.1-1.6c-1-1-1.6-2.4-1.6-4h16.5l0-0.3C114.7,32.3,114.7,31.7,114.7,31.2 M110.8,29.9H98.5c1.3-3.2,4.4-4.8,6.8-4.8
			C108.1,25,110.3,27,110.8,29.9"/>
	</defs>
	<clipPath id="SVGID_42_">
		<use xlink:href="#SVGID_41_"  overflow="visible"/>
	</clipPath>
	<g clip-path="url(#SVGID_42_)">
		<defs>
			<rect id="SVGID_43_" x="-50" y="-22.5" width="1040" height="266"/>
		</defs>
		<clipPath id="SVGID_44_">
			<use xlink:href="#SVGID_43_"  overflow="visible"/>
		</clipPath>
		<rect x="89" y="16.8" clip-path="url(#SVGID_44_)" fill="#FEFEFE" width="30.6" height="30.5"/>
	</g>
</g>
</svg>
